<?xml version="1.0" encoding="utf-8"?>
<!-- Generator: Adobe Illustrator 19.2.1, SVG Export Plug-In . SVG Version: 6.00 Build 0)  -->
<svg version="1.1" id="Слой_1" xmlns="http://www.w3.org/2000/svg" xmlns:xlink="http://www.w3.org/1999/xlink" x="0px" y="0px"
	 viewBox="0 0 157.3 150.2" style="enable-background:new 0 0 157.3 150.2;" xml:space="preserve">
<style type="text/css">
	.st0{clip-path:url(#SVGID_2_);}
	.st1{clip-path:url(#SVGID_4_);fill-rule:evenodd;clip-rule:evenodd;fill:#F3E03A;}
	.st2{clip-path:url(#SVGID_4_);}
	.st3{clip-path:url(#SVGID_4_);fill:#FFFFFF;}
	.st4{clip-path:url(#SVGID_4_);fill-rule:evenodd;clip-rule:evenodd;}
	.st5{fill:#6C6C6C;}
	.st6{fill:#DD8C33;}
	.st7{fill:#353434;}
</style>
<g>
	<path class="st6" d="M148.9,29.2h-20.1l-16.1,18.4c0,0.3,0,0.5,0,0.8c0,1.4-0.1,2.8-0.4,4c-0.3,1.2-0.7,2.4-1.2,3.4
		c-0.4,0.8-1,1.6-1.6,2.4c-0.5,0.6-1,1.1-1.6,1.7c0.5,0.4,1,1,1.5,1.6c0.7,0.9,1.2,2,1.8,3.2v0c0.5,1.2,0.9,2.5,1.1,3.9
		c0.3,1.3,0.4,2.7,0.4,4.1c0,0.5,0,1-0.1,1.5l16,18.4h20.1L121.1,61L148.9,29.2z"/>
</g>
<g>
	<path class="st6" d="M110.4,65c-0.5-1.2-1-2.2-1.7-3c-0.4-0.5-0.7-0.9-1.1-1.3c-0.2-0.2-0.3-0.3-0.5-0.5l-0.4-0.3l0.3-0.3
		c0.2-0.2,0.4-0.4,0.6-0.5c0.5-0.4,0.9-0.9,1.3-1.4c0.6-0.7,1.1-1.5,1.5-2.3c0.5-1,0.9-2.1,1.1-3.3c0.3-1.2,0.4-2.5,0.4-3.9
		c0,0,0,0,0,0c0-2.9-0.4-5.6-1.2-8c-0.8-2.4-2.1-4.5-3.7-6.3c-1.7-1.8-3.5-3.2-5.6-4.1c-2.1-0.9-4.4-1.4-6.9-1.4H62.4v22.6h15.4
		l0-7.2h13.4c0.6,0,1.2,0.1,1.7,0.3c0.5,0.2,0.9,0.5,1.3,0.9c0.4,0.4,0.6,0.9,0.8,1.4c0.2,0.5,0.3,1.1,0.3,1.8
		c0,0.6-0.1,1.2-0.3,1.7c-0.2,0.5-0.5,1-0.8,1.4c-0.7,0.9-1.7,1.3-3,1.3h-29l0.1,0.3l7.8,22.3l7.7,0l0-7.2h13.4
		c0.6,0,1.2,0.1,1.7,0.3c0.5,0.2,0.9,0.5,1.3,0.9c0.4,0.4,0.6,0.9,0.8,1.4c0.2,0.5,0.3,1.1,0.3,1.8c0,0.6-0.1,1.2-0.3,1.7
		c-0.2,0.5-0.5,1-0.8,1.4c-0.4,0.4-0.8,0.8-1.3,1c-0.5,0.2-1.1,0.3-1.7,0.3H70.3l5.4,15.4h18.8c2.4,0,4.7-0.5,6.8-1.4
		c2.1-0.9,4-2.3,5.6-4.1c1.7-1.8,3-4,3.8-6.4c0.8-2.2,1.2-4.7,1.2-7.3c0-0.2,0-0.5,0-0.7c0-1.4-0.1-2.7-0.4-4
		C111.3,67.5,110.9,66.2,110.4,65z"/>
</g>
<g>
	<polygon class="st6" points="69.7,78.1 69.4,77 69.2,76.5 52.6,29.2 35.9,29.2 52.8,77.7 34.2,77.7 42.6,53.5 26,53.5 12.7,92.3 
		69,92.3 69.4,92.3 69.7,92.3 74.7,92.3 	"/>
</g>
<polygon class="st6" points="69.8,86.3 69.8,86.3 68.8,83.6 "/>
<g>
	<path class="st7" d="M22.6,121.6c-0.8,0-1.6-0.1-2.3-0.2c-0.7-0.2-1.2-0.4-1.7-0.6s-0.9-0.5-1.3-0.8c-0.4-0.3-0.6-0.5-0.9-0.8
		c-0.9-0.9-1.5-1.9-1.8-3.2c-0.3-1.2-0.5-2.7-0.5-4.5c0-0.7,0-1.4,0.1-2.1c0-0.7,0.1-1.4,0.3-2.1c0.2-0.7,0.4-1.4,0.7-2
		c0.3-0.6,0.7-1.2,1.2-1.8c0.3-0.3,0.6-0.6,1-0.9c0.4-0.3,0.8-0.6,1.4-0.8c0.5-0.2,1.1-0.4,1.8-0.6c0.7-0.2,1.4-0.2,2.2-0.2h7.9v1.4
		h-7.2c-0.4,0-0.8,0-1.4,0.1c-0.5,0-1,0.1-1.6,0.3c-0.5,0.2-1.1,0.4-1.6,0.7c-0.5,0.3-1,0.7-1.4,1.3c-0.4,0.5-0.6,1-0.8,1.5
		s-0.4,1.1-0.5,1.7c-0.1,0.6-0.2,1.2-0.2,1.8c0,0.6,0,1.2,0,1.8c0,0.4,0,0.9,0,1.4c0,0.5,0.1,1,0.1,1.6c0.1,0.5,0.2,1.1,0.4,1.6
		c0.2,0.5,0.4,1,0.8,1.5c0.4,0.6,0.9,1.1,1.5,1.4c0.6,0.3,1.1,0.6,1.6,0.8c0.5,0.2,1,0.3,1.5,0.3s0.8,0,1.1,0h8v1.4H22.6z"/>
	<path class="st7" d="M48.1,121.6v-19.2h-8.6V101h18.8v1.4h-8.6v19.2H48.1z"/>
	<path class="st7" d="M68.5,121.6v-18.1c0-0.3,0-0.6,0.1-0.9c0-0.4,0.2-0.7,0.5-0.9c0.1-0.1,0.3-0.2,0.5-0.3
		c0.2-0.1,0.4-0.1,0.6-0.2c0.2,0,0.4-0.1,0.5-0.1c0.2,0,0.3,0,0.4,0h8.5c0.7,0,1.3,0.1,2,0.2s1.3,0.4,1.9,0.9c0.6,0.5,1,1.2,1.2,2
		s0.3,1.9,0.3,3.3c0,0.4,0,0.9-0.1,1.3s-0.1,0.9-0.2,1.4c-0.1,0.4-0.3,0.9-0.5,1.3c-0.2,0.4-0.5,0.7-0.9,1c-0.4,0.3-0.8,0.5-1.3,0.6
		c-0.5,0.2-1,0.2-1.5,0.2H70.1v8.4H68.5z M79.6,111.8c0.9,0,1.5-0.1,2-0.3c0.4-0.2,0.8-0.4,0.9-0.6c0.2-0.2,0.3-0.5,0.5-0.9
		c0.1-0.4,0.2-0.7,0.2-1.1c0-0.4,0.1-0.7,0.1-1.1s0-0.6,0-0.8c0-0.2,0-0.4,0-0.7c0-0.3,0-0.6-0.1-1c-0.1-0.3-0.1-0.7-0.3-1
		c-0.1-0.3-0.3-0.6-0.5-0.8c-0.2-0.2-0.5-0.5-1-0.6c-0.4-0.2-1-0.3-1.8-0.3h-8.4c-0.6,0-0.9,0.1-1,0.4c-0.1,0.2-0.1,0.5-0.1,0.9v8.1
		H79.6z"/>
	<path class="st7" d="M108.4,100.8c0.7,0,1.3,0.1,2,0.3c0.7,0.1,1.3,0.4,2,0.7s1.2,0.7,1.8,1.2c0.6,0.6,1,1.2,1.4,1.9
		s0.6,1.4,0.7,2.2c0.2,0.7,0.3,1.5,0.3,2.2c0,0.7,0.1,1.4,0.1,2c0,0.6,0,1.2-0.1,2s-0.1,1.5-0.3,2.2s-0.4,1.5-0.7,2.2
		s-0.8,1.4-1.4,1.9c-0.5,0.5-1.1,0.9-1.8,1.3s-1.3,0.5-2,0.7c-0.7,0.1-1.3,0.2-2,0.3s-1.3,0-1.9,0c-0.6,0-1.2,0-1.9,0
		c-0.7,0-1.3-0.1-2-0.3c-0.7-0.1-1.3-0.4-2-0.7c-0.6-0.3-1.2-0.7-1.8-1.3c-0.6-0.6-1-1.2-1.4-1.9c-0.3-0.7-0.6-1.4-0.7-2.2
		c-0.2-0.7-0.3-1.5-0.3-2.2s-0.1-1.4-0.1-2c0-0.6,0-1.2,0.1-2c0-0.7,0.1-1.5,0.3-2.2c0.2-0.7,0.4-1.5,0.7-2.2
		c0.3-0.7,0.8-1.4,1.4-1.9c0.5-0.5,1.1-0.9,1.8-1.2c0.6-0.3,1.3-0.5,2-0.7c0.7-0.1,1.3-0.2,2-0.3c0.7,0,1.3-0.1,1.9-0.1
		C107.2,100.8,107.8,100.8,108.4,100.8z M98.3,113.2c0,0.6,0.1,1.3,0.2,1.9c0.1,0.6,0.3,1.2,0.5,1.8c0.2,0.6,0.6,1.1,1,1.6
		c0.4,0.5,0.9,0.9,1.5,1.1s1.1,0.5,1.7,0.6c0.6,0.1,1.2,0.2,1.7,0.2c0.6,0,1.1,0,1.6,0s1,0,1.6,0c0.6,0,1.2-0.1,1.7-0.2
		c0.6-0.1,1.1-0.3,1.7-0.6c0.5-0.3,1-0.6,1.5-1.1c0.4-0.5,0.8-1,1-1.6c0.2-0.6,0.4-1.2,0.5-1.8c0.1-0.6,0.2-1.3,0.2-1.9
		c0-0.6,0-1.3,0-1.9c0-0.6,0-1.2,0-1.9s-0.1-1.3-0.2-1.9c-0.1-0.6-0.3-1.2-0.5-1.8c-0.2-0.6-0.6-1.1-1-1.6c-0.5-0.5-0.9-0.9-1.5-1.1
		c-0.5-0.3-1.1-0.5-1.7-0.6c-0.6-0.1-1.2-0.2-1.7-0.2c-0.6,0-1.1,0-1.6,0s-1,0-1.6,0c-0.6,0-1.2,0.1-1.7,0.2
		c-0.6,0.1-1.1,0.3-1.7,0.6c-0.5,0.3-1,0.6-1.5,1.1c-0.4,0.5-0.8,1-1,1.6c-0.2,0.6-0.4,1.2-0.5,1.8c-0.1,0.6-0.2,1.3-0.2,1.9
		s0,1.3,0,1.9C98.3,111.9,98.3,112.5,98.3,113.2z"/>
	<path class="st7" d="M144.4,121.6V103c0-0.3,0-0.4-0.1-0.5c-0.1-0.1-0.1-0.1-0.2-0.1c-0.1,0-0.3,0.1-0.4,0.3
		c-0.1,0.2-0.2,0.4-0.4,0.6L132.8,120c-0.2,0.2-0.3,0.5-0.4,0.7c-0.1,0.2-0.3,0.4-0.5,0.6c-0.2,0.2-0.4,0.3-0.6,0.4
		c-0.2,0.1-0.5,0.1-0.8,0.1c-0.4,0-0.7-0.1-1-0.3s-0.4-0.4-0.5-0.6c-0.1-0.2-0.2-0.5-0.2-0.8c0-0.3,0-0.5,0-0.7V101h1.6v18.3
		c0,0.2,0,0.4,0,0.6s0.1,0.3,0.3,0.3c0.1,0,0.2-0.1,0.3-0.2c0.1-0.1,0.2-0.3,0.2-0.4l10.4-16.6c0.2-0.3,0.4-0.6,0.6-0.9
		c0.2-0.3,0.4-0.5,0.5-0.7s0.4-0.3,0.6-0.4s0.5-0.2,0.9-0.2c0.4,0,0.8,0.1,1,0.3c0.2,0.2,0.4,0.5,0.5,0.8c0.1,0.3,0.2,0.6,0.2,0.9
		c0,0.3,0,0.5,0,0.6v18.3H144.4z M134.7,97c0,0.3,0.1,0.5,0.3,0.7c0.1,0.2,0.3,0.3,0.4,0.4c0.3,0.3,0.6,0.4,0.9,0.5
		c0.3,0,0.7,0.1,1,0.1c0.3,0,0.7,0,1-0.1c0.3,0,0.6-0.2,0.9-0.5c0.1-0.1,0.2-0.2,0.4-0.4s0.2-0.4,0.3-0.7h1.7
		c-0.1,0.6-0.3,1.1-0.6,1.5c-0.3,0.4-0.6,0.7-0.9,0.9c-0.4,0.3-0.9,0.5-1.3,0.6c-0.5,0.1-0.9,0.1-1.4,0.1c-0.5,0-1,0-1.4-0.1
		c-0.5-0.1-0.9-0.3-1.3-0.6c-0.3-0.2-0.6-0.5-0.9-0.9c-0.3-0.4-0.5-0.9-0.6-1.5H134.7z"/>
</g>
</svg>
