<svg xmlns="http://www.w3.org/2000/svg" xmlns:xlink="http://www.w3.org/1999/xlink" width="1226" height="89" viewBox="0 0 1226 89"><defs><path id="h4dea" d="M1097.95 390.47c-6.19 3.46-13.13 4.5-22.4 1.04l-81.86-32.23c-6.96-2.77-13.9-6.23-20.87-2.42l-61.76 32.92c-6.19 3.46-14.69 5.19-22.4 1.04l-81.89-32.22c-7.71-2.78-16.2-5.55-23.15-1.74l-61.8 32.92c-6.18 3.46-14.67 5.19-22.4 1.04l-81.85-32.22c-6.96-2.78-15.46-5.55-23.18-1.74l-67.85 35.83c-4.85 1.41-10.31 1.3-17-1.18l-81.85-32.23c-6.96-2.77-13.9-6.23-20.87-2.42l-61.77 32.92c-6.18 3.46-14.68 5.19-22.4 1.04l-81.88-32.22c-7.72-2.78-16.21-5.55-23.16-1.74l-61.79 32.92c-6.18 3.46-14.68 5.19-22.4 1.04L51.56 358.6c-6.96-2.78-15.46-5.55-23.17-1.74l-100.39 53v20.1l52.52-28.05c6.94-3.82 16.97-.7 23.16 1.72l81.88 32.22c8.5 3.48 15.43 2.09 21.62-1.03l62.55-32.91c6.18-3.47 16.99-.7 22.4 1.72l81.85 32.22c9.28 3.48 16.22 2.43 22.4-1.03l61.8-32.91c6.93-3.82 16.99-.7 23.15 1.72l81.88 32.22c8.5 3.48 15.44 2.09 21.62-1.03l65.24-33.96c6.53-1.55 14.38.73 19.6 2.77l81.9 32.22c8.49 3.48 15.43 2.09 21.61-1.03l62.55-32.91c6.18-3.47 17-.7 22.4 1.72l81.85 32.22c9.28 3.48 16.22 2.43 22.4-1.03l61.8-32.91c6.93-3.82 17-.7 23.15 1.72l81.88 32.22c8.5 3.48 15.44 2.09 21.62-1.03L1152 382.16V362.4z"/></defs><g><g transform="translate(73 -352)"><use fill="#fff" xlink:href="#h4dea"/></g></g></svg>